# xmcd CD database file
#
# Track frame offsets:
#	150
#	11253
#	22770
#	36723
#	49398
#	61988
#	76698
#	90380
#	101163
#	112615
#	135048
#	147430
#	159793
#	172208
#	186848
#	199845
#	212145
#	224443
#
# Disc length: 3246 seconds
#
# Revision: 0
# Processed by: cddbd v1.5.1PL0 Copyright (c) Steve Scherf et al.
# Submitted via: CDex 1.51
#
DISCID=ed0cac12
DTITLE=R&B Big Artist - Collections
DYEAR=1900
DGENRE=Rhythmic Soul
TTITLE0=Land of thousand Dances
TTITLE1=Hold on I'm comin'
TTITLE2=Knock on Wood
TTITLE3=it's a man's man's World
TTITLE4=Chain of Fools
TTITLE5=I've been loving You too long
TTITLE6=Stand by Me
TTITLE7=Sweet Soul Music
TTITLE8=Soul Sister, Brown Suger
TTITLE9=Proud Mary
TTITLE10=The Dog of the Bay
TTITLE11=Natural Woman
TTITLE12=Sunny
TTITLE13=A change gonna come
TTITLE14=Unchain my Heart
TTITLE15=Twistin' the Night Away
TTITLE16=Under the Boardwalk
TTITLE17=I can't Stop Loving You
EXTD=
EXTT0=
EXTT1=
EXTT2=
EXTT3=
EXTT4=
EXTT5=
EXTT6=
EXTT7=
EXTT8=
EXTT9=
EXTT10=
EXTT11=
EXTT12=
EXTT13=
EXTT14=
EXTT15=
EXTT16=
EXTT17=
PLAYORDER=
